Coordinates
version=1
nRows=14
nColumns=24
inDegrees=yes

Units are S.I. units (second, meters, Newtons, ...)
Angles are in degrees.

endheader
time	pelvis_tilt	pelvis_list	pelvis_rotation	pelvis_tx	pelvis_ty	pelvis_tz	hip_flexion_r	hip_adduction_r	hip_rotation_r	knee_angle_r	ankle_angle_r	subtalar_angle_r	mtp_angle_r	hip_flexion_l	hip_adduction_l	hip_rotation_l	knee_angle_l	ankle_angle_l	subtalar_angle_l	mtp_angle_l	lumbar_extension	lumbar_bending	lumbar_rotation
      4.99000000	     -3.23691248	      8.65896223	     -6.92039769	      0.43737706	      1.01667638	     -0.30963083	      8.92239960	    -12.64966141	     -4.51738866	    -60.58819384	    -13.61930898	     -0.23255652	      0.00000000	     17.34925506	     10.70609868	     -5.86835422	    -14.02832482	      6.30206065	    -12.94820930	      0.00000000	     -8.43721133	    -11.76463547	      0.94762598
      4.99500000	     -3.17350784	      8.69161636	     -6.93506575	      0.44371704	      1.01732615	     -0.30982691	      9.64458616	    -12.65750921	     -4.40702802	    -61.43575272	    -12.91862551	     -0.79838983	      0.00000000	     16.79687742	     10.83860860	     -5.73566608	    -13.83109794	      6.63647595	    -12.93675547	      0.00000000	     -8.49994597	    -11.77250030	      0.83374697
      5.00000000	     -3.17375376	      8.79610475	     -6.93699791	      0.45006216	      1.01783933	     -0.31011707	     10.44381787	    -12.73419107	     -4.24846846	    -62.26115829	    -11.80977991	     -1.00056866	      0.00000000	     16.30844378	     11.05498965	     -5.60066426	    -13.58784222	      6.81298163	    -13.13129366	      0.00000000	     -8.47592332	    -11.84849466	      0.66022297
      5.00500000	     -3.15813803	      8.82410565	     -6.89420302	      0.45646731	      1.01843816	     -0.31041984	     11.17146272	    -12.72537497	     -4.15623375	    -62.97097837	    -10.56795716	     -1.13371079	      0.00000000	     15.75673408	     11.21080755	     -5.30192852	    -13.30655373	      7.01162910	    -13.31642537	      0.00000000	     -8.47006551	    -11.83282374	      0.46360470
      5.01000000	     -3.13571905	      8.83102682	     -6.82736517	      0.46276038	      1.01904963	     -0.31083997	     11.88312056	    -12.71133831	     -4.12116127	    -63.61473240	     -9.16730109	     -1.17267267	      0.00000000	     15.20393133	     11.36280786	     -4.97688885	    -13.02363205	      7.11494813	    -13.63792705	      0.00000000	     -8.50430912	    -11.77647743	      0.27953304
      5.01500000	     -3.10221483	      8.82339074	     -6.74949609	      0.46910449	      1.01971687	     -0.31122548	     12.55696301	    -12.67914116	     -4.11651954	    -64.16394996	     -7.70116682	     -1.17863383	      0.00000000	     14.60388716	     11.50271395	     -4.57077724	    -12.69057407	      7.17049651	    -13.97177878	      0.00000000	     -8.54036019	    -11.71143092	      0.08757202
      5.02000000	     -3.06368741	      8.76575022	     -6.65879787	      0.47543019	      1.02039649	     -0.31163057	     13.20356819	    -12.59565189	     -4.13999043	    -64.63344938	     -6.19938540	     -1.10579412	      0.00000000	     13.99719162	     11.58871582	     -4.20743193	    -12.37210195	      7.31408897	    -14.22406403	      0.00000000	     -8.59112262	    -11.57937475	     -0.13092449
      5.02500000	     -3.01572752	      8.72237665	     -6.54690904	      0.48176648	      1.02111264	     -0.31206208	     13.82210026	    -12.53684383	     -4.20672985	    -65.02291191	     -4.67831889	     -1.02411143	      0.00000000	     13.35457746	     11.69728302	     -3.75433190	    -12.00344515	      7.31740934	    -14.57486032	      0.00000000	     -8.65255115	    -11.47021735	     -0.33948619
      5.03000000	     -2.97656757	      8.62235569	     -6.44218182	      0.48805152	      1.02181234	     -0.31249259	     14.43921258	    -12.41041655	     -4.27556588	    -65.33936126	     -3.21323959	     -0.91103366	      0.00000000	     12.72521081	     11.73616590	     -3.36670980	    -11.65384158	      7.43402589	    -14.83105458	      0.00000000	     -8.71410409	    -11.28502963	     -0.55885782
      5.03500000	     -2.92526991	      8.54108216	     -6.31023192	      0.49436454	      1.02255209	     -0.31294145	     15.02064389	    -12.31569923	     -4.39711531	    -65.57368689	     -1.78476010	     -0.81721476	      0.00000000	     12.05626259	     11.79916130	     -2.89404446	    -11.25588447	      7.41593950	    -15.15855538	      0.00000000	     -8.78748067	    -11.12848436	     -0.77114045
      5.04000000	     -2.86710834	      8.43306881	     -6.18973330	      0.50063056	      1.02327474	     -0.31339797	     15.59317846	    -12.18840915	     -4.51533604	    -65.74659107	     -0.45226761	     -0.72965888	      0.00000000	     11.37191451	     11.82938585	     -2.40417264	    -10.84728366	      7.44028641	    -15.48592342	      0.00000000	     -8.87869188	    -10.93587509	     -0.99112781
      5.04500000	     -2.84287472	      8.27702715	     -6.07197066	      0.50686520	      1.02396905	     -0.31382072	     16.18169316	    -11.99661226	     -4.63889273	    -65.84091931	      0.81787752	     -0.61548273	      0.00000000	     10.73828547	     11.79031423	     -2.06794909	    -10.46874260	      7.53614998	    -15.67815434	      0.00000000	     -8.93296021	    -10.68358023	     -1.17847518
      5.05000000	     -2.77790355	      8.15370757	     -5.92654679	      0.51310942	      1.02469907	     -0.31428850	     16.71286190	    -11.85668593	     -4.80754417	    -65.87074947	      2.01651953	     -0.52985589	      0.00000000	     10.02219869	     11.79610283	     -1.52548481	    -10.02189703	      7.48230078	    -16.01867705	      0.00000000	     -9.03901688	    -10.47673441	     -1.39300004
      5.05500000	     -2.75568097	      7.97419104	     -5.81132276	      0.51932464	      1.02536755	     -0.31470305	     17.27953218	    -11.63466505	     -4.94923415	    -65.83185672	      3.14336579	     -0.39727257	      0.00000000	      9.37254537	     11.72017924	     -1.18994590	     -9.61161807	      7.54906753	    -16.20871155	      0.00000000	     -9.09140215	    -10.19576145	     -1.57208940
